<?xml version="1.0" encoding="UTF-8" standalone="no"?>
<!DOCTYPE svg PUBLIC "-//W3C//DTD SVG 1.1//EN" "http://www.w3.org/Graphics/SVG/1.1/DTD/svg11.dtd">
<svg width="100%" height="100%" viewBox="0 0 1667 438" version="1.1" xmlns="http://www.w3.org/2000/svg" xmlns:xlink="http://www.w3.org/1999/xlink" xml:space="preserve" xmlns:serif="http://www.serif.com/" style="fill-rule:evenodd;clip-rule:evenodd;stroke-linejoin:round;stroke-miterlimit:2;">
    <g transform="matrix(6.49739,0,0,6.49739,-333.704,-948.794)">
        <g id="Layer-1" serif:id="Layer 1">
            <g>
                <g transform="matrix(0.194919,0,0,0.194919,92.4988,157.589)">
                    <path d="M0,233.673L-25.156,233.673L-25.156,7.945C-91.353,35.743 -96.647,173.432 -96.647,233.673L-99.959,233.673L-189.324,27.807L-198.59,5.954L-198.59,233.673L-200.577,233.673L-200.577,0L-173.107,0L-97.639,174.429C-91.353,98.304 -70.168,0 0,0L0,233.673Z" style="fill:rgb(38,34,97);fill-rule:nonzero;"/>
                </g>
                <g transform="matrix(0.194919,0,0,0.194919,103.019,175.846)">
                    <path d="M0,46.672C13.236,96.651 59.907,149.608 115.842,134.716C172.441,120.152 186.671,50.313 173.766,0.004C160.192,-50.969 113.857,-103.593 56.928,-87.709C0.659,-73.142 -13.574,-3.967 0,46.672M199.25,-6.612C216.792,55.28 179.391,120.487 116.504,137.03C54.277,154.569 -9.603,117.171 -26.812,53.622C-43.359,-9.266 -5.958,-73.476 56.597,-90.355C118.488,-107.897 183.033,-69.498 199.25,-6.612" style="fill:rgb(38,34,97);fill-rule:nonzero;"/>
                </g>
                <g transform="matrix(0.194919,0,0,0.194919,155.991,177.782)">
                    <path d="M0,26.485C-12.248,54.617 -19.528,86.721 -19.528,130.079L-44.686,130.079L-44.686,-103.594L-19.528,-103.594L-19.528,87.716C-11.587,26.485 13.239,-10.254 48.324,-51.961C48.324,-51.961 82.415,-91.017 65.203,-103.594L120.145,-103.594C96.976,-98.963 71.16,-72.815 70.167,-72.815C44.351,-43.353 22.837,-18.201 6.95,11.59C12.576,5.964 21.514,0.337 33.759,0.337C80.097,0.337 92.012,38.4 107.237,73.152C120.145,102.277 131.73,127.432 154.9,127.432L154.9,130.079C34.42,130.079 108.893,2.982 33.759,2.982C13.239,2.982 2.978,19.862 0,26.485" style="fill:rgb(38,34,97);fill-rule:nonzero;"/>
                </g>
                <g transform="matrix(0.194919,0,0,0.194919,187.027,175.846)">
                    <path d="M0,46.672C13.239,96.651 59.907,149.608 115.843,134.716C172.437,120.152 186.671,50.313 173.761,0.004C160.187,-50.969 113.854,-103.593 56.923,-87.709C0.655,-73.142 -13.573,-3.967 0,46.672M199.255,-6.612C216.792,55.28 179.392,120.487 116.498,137.03C54.273,154.569 -9.604,117.171 -26.817,53.622C-43.364,-9.266 -5.962,-73.476 56.591,-90.355C118.489,-107.897 183.033,-69.498 199.255,-6.612" style="fill:rgb(38,34,97);fill-rule:nonzero;"/>
                </g>
                <g transform="matrix(0.194919,0,0,0.194919,213.159,181.064)">
                    <path d="M0,-1.298C-2.776,-1.586 -6.76,-2.188 -11.526,-2.57C-20.238,-3.34 -31.601,-3.871 -43.188,-3.978C-43.288,-16.609 -43.819,-29.007 -44.604,-38.495C-44.983,-43.656 -45.588,-47.96 -45.872,-50.972C-46.229,-53.98 -46.517,-55.702 -46.517,-55.702C-46.517,-55.702 -46.815,-53.98 -47.171,-50.972C-47.459,-47.96 -48.061,-43.656 -48.437,-38.495C-49.219,-29.007 -49.748,-16.611 -49.85,-3.98C-61.441,-3.877 -72.805,-3.351 -81.512,-2.575C-86.287,-2.201 -90.258,-1.592 -93.049,-1.304C-95.828,-0.943 -97.424,-0.649 -97.424,-0.649C-97.424,-0.649 -95.828,-0.354 -93.049,0.005C-90.258,0.296 -86.287,0.903 -81.512,1.276C-72.805,2.055 -61.443,2.581 -49.85,2.682C-49.753,15.311 -49.224,27.708 -48.443,37.196C-48.075,42.359 -47.459,46.663 -47.171,49.675C-46.815,52.681 -46.517,54.404 -46.517,54.404C-46.517,54.404 -46.223,52.681 -45.87,49.675C-45.579,46.663 -44.969,42.359 -44.589,37.196C-43.808,27.708 -43.285,15.31 -43.188,2.681C-31.601,2.574 -20.238,2.042 -11.526,1.269C-6.76,0.89 -2.776,0.288 0,-0.001C2.793,-0.354 4.379,-0.649 4.379,-0.649C4.379,-0.649 2.793,-0.943 0,-1.298" style="fill:rgb(38,34,97);fill-rule:nonzero;"/>
                </g>
                <g transform="matrix(0.194919,0,0,0.194919,257.03,157.589)">
                    <path d="M0,233.673L-132.062,233.673L-132.062,0L-105.588,0L-105.588,231.026L-49.649,231.026C-21.184,231.026 -4.303,218.119 7.946,184.684L0,233.673Z" style="fill:rgb(38,34,97);fill-rule:nonzero;"/>
                </g>
                <g transform="matrix(0.194919,0,0,0.194919,265.873,175.846)">
                    <path d="M0,46.672C13.235,96.651 59.906,149.608 115.843,134.716C172.444,120.152 186.678,50.313 173.767,0.004C160.196,-50.969 113.858,-103.593 56.931,-87.709C0.664,-73.142 -13.574,-3.967 0,46.672M199.251,-6.612C216.792,55.28 179.392,120.487 116.505,137.03C54.278,154.569 -9.603,117.171 -26.81,53.622C-43.364,-9.266 -5.96,-73.476 56.6,-90.355C118.491,-107.897 183.033,-69.498 199.251,-6.612" style="fill:rgb(38,34,97);fill-rule:nonzero;"/>
                </g>
            </g>
        </g>
    </g>
</svg>
